<?xml version="1.0" encoding="utf-8"?>
<!-- Generator: Adobe Illustrator 18.1.1, SVG Export Plug-In . SVG Version: 6.00 Build 0)  -->
<svg version="1.1" id="Слой_1" xmlns="http://www.w3.org/2000/svg" xmlns:xlink="http://www.w3.org/1999/xlink" x="0px" y="0px"
	 viewBox="3.6 2 200 200" enable-background="new 3.6 2 200 200" xml:space="preserve">
<g>
	<path fill="#5A6AAE" d="M155.2,92.3c2,0,21.1,0,38.7,0c0.8-22.8-8-45.9-26.4-63.3c-17.2-16.3-39.6-24.6-62-25v36.7
		c0,0.1,0,0.2,0,0.2c0.1,0.2,1.3,0.8,4.2,0.8c2.6,0,5.6-0.6,7.8-1.5c1.9-0.7,3.5-1.7,5.2-2.7c3.8-2.2,8.2-4.8,14.8-4.8
		c10.9,0,19.8,8.4,19.8,18.7s-8.9,18.7-19.8,18.7c-6.6,0-11-2.5-14.8-4.8c-1.7-1-3.4-2-5.2-2.7c-2.3-0.9-5.3-1.5-7.8-1.5
		c-2.9,0-4,0.7-4.2,0.9c0,0,0,0.1,0,0.2v18.6c0,6.3,5.4,11.5,12.1,11.5c5.7,0,12,0,14.9,0c7.1,0,6.8,11.2,3.9,17.7
		c-2.8,6.2-7.6,9.7-7.6,17.2c0,7.9,6.7,14.2,15,14.2c8.3,0,15-6.4,15-14.2c0-7.5-4.8-11.1-7.6-17.2
		C148.4,103.4,148.1,92.3,155.2,92.3z"/>
	<path fill="#37489E" d="M137.5,37.1c-8,0-11.7,4.5-18.2,7.2c-6.9,2.8-18.7,3.1-18.7-3.7c0-2.2,0-21.8,0-36.6
		c-22.2,0.7-44.1,9-61,25C21.3,46.4,12.5,69.5,13.3,92.3h32.9c0.1,0,0.2,0,0.2,0c1.1-0.8,1.5-6.5-0.7-11.4c-0.8-1.7-1.8-3.3-2.9-5
		c-2.4-3.6-5-7.7-5-14c0-10.3,8.9-18.7,19.8-18.7s19.8,8.4,19.8,18.7c0,6.3-2.7,10.4-5,14c-1.1,1.7-2.1,3.2-2.9,5
		c-2.2,4.9-1.8,10.6-0.7,11.4l0,0c0,0,0.1,0,0.2,0h19.7c6.7,0,12.1-5.2,12.1-11.5c0-6.3,0-13.7,0-18.6c0-6.7,11.8-6.4,18.7-3.7
		c6.5,2.6,10.2,7.2,18.2,7.2c8.3,0,15-6.4,15-14.2C152.6,43.5,145.8,37.1,137.5,37.1z"/>
	<path fill="#37489E" d="M88.5,96.7H68.9c-7.1,0-6.8-11.2-3.9-17.7c2.8-6.2,7.6-9.7,7.6-17.2c0-7.9-6.7-14.2-15-14.2
		s-15,6.4-15,14.2c0,7.5,4.8,11.1,7.6,17.2c2.9,6.5,3.2,17.7-3.9,17.7H13.6c1.7,19.4,10.4,38.4,26.1,53.3
		c13.4,12.8,21.6,17.6,28.4,34.6c0,0.1,0.1,0.3,0.2,0.4c1.7,3.7,5.4,6.5,9.9,6.9h10.4c6.7,0,12.1-5.2,12.1-11.5v-36.6
		c0-0.1,0-0.2,0-0.2c-0.1-0.2-1.3-0.8-4.2-0.8c-2.6,0-5.6,0.6-7.8,1.5c-1.9,0.7-3.5,1.7-5.2,2.7c-3.8,2.2-8.2,4.8-14.8,4.8
		c-10.9,0-19.8-8.4-19.8-18.7c0-10.3,8.9-18.7,19.8-18.7c6.6,0,11,2.5,14.8,4.8c1.7,1,3.4,2,5.2,2.7c2.3,0.9,5.3,1.5,7.8,1.5
		c2.9,0,4-0.7,4.2-0.9c0,0,0-0.1,0-0.2v-14.2C100.7,101.9,95.3,96.7,88.5,96.7z"/>
	<path fill="#5A6AAE" d="M155.2,96.7c-0.2,0-0.2,0-0.2,0c-1.1,0.8-1.5,6.5,0.7,11.4c0.8,1.7,1.8,3.3,2.9,5c2.4,3.6,5,7.7,5,14
		c0,10.3-8.9,18.7-19.8,18.7c-10.9,0-19.8-8.4-19.8-18.7c0-6.3,2.7-10.4,5-14c1.1-1.7,2.1-3.2,2.9-5c2.2-4.9,1.8-10.6,0.7-11.4l0,0
		c0,0-0.1,0-0.2,0h-14.9c-6.7,0-12.1,5.2-12.1,11.5v14.2c0,6.7-11.8,6.4-18.7,3.7c-6.5-2.6-10.2-7.2-18.2-7.2c-8.3,0-15,6.4-15,14.2
		c0,7.9,6.7,14.2,15,14.2c8,0,11.7-4.5,18.2-7.2c6.9-2.8,18.7-3.1,18.7,3.7v36.6c0,6.3,5.4,11.5,12.1,11.5h10.2
		c5,0,9.2-2.8,11.1-6.8c0.2-0.4,0.4-0.9,0.5-1.3c6.8-16.4,14.9-21.2,28.1-33.8c15.7-14.9,24.4-33.9,26.1-53.3L155.2,96.7L155.2,96.7
		z"/>
	<circle fill="#FFFFFF" cx="102.8" cy="138.3" r="61.7"/>
	<path fill="#37489E" d="M141.4,169.1c-1.5-0.9-2.9-2.4-2.6-4.1c0.5-3.4,0.6-4.7,0-5.7c-0.4-0.7-1.2-1.1-1.9-1.3
		c0.4-0.6,0.7-1.2,0.8-2.4c0.3-2.2-1-9-2.8-14.5c-1.8-5.4-6.6-11-9.8-14.9c-5.7-7-5-8.6-5.8-21.9c-0.5-8.5-4.3-15.2-15.3-15.2
		s-14.7,7-14.7,13c0,6.3,0.4,11.2,0.4,11.2c0.3,7.3,0.2,8.7-1.8,12.2c-1.1,1.9-5.9,6.6-7.8,9.8c-1.9,3.2-1.7,6.5-5.4,11.6
		c-2.7,3.7-3,6.2-2.1,9.7c-1.5,1.8-0.8,4.4-1.1,5.5c-0.6,1.9-3,2.3-4.9,2.4c-1.9,0.2-3.4,0-4.1,1.2c-0.7,1.2,0.2,3.5,0.9,6.6
		c0.8,3.1-1.6,3.3-1.6,6.8c0,3.5,6.6,3.5,13.1,5c6.5,1.5,9,3.6,12.3,3.6c3.4,0,5.9-2.2,8.4-4.3c1.6-1.3,6.4-0.8,9.3-0.8
		s7.5-0.1,10.1,0.5s2.5,4.5,8.6,4.5c6.2,0,7.6-4.6,13.4-7.5c5.8-3,9.2-4.4,9.2-6.5C146.1,171.4,142.8,170,141.4,169.1z M91.5,181.3
		c-0.3,2.9-2.8,3.8-5.3,3.5c-2.9-0.2-6.4-1.7-9.7-2.7s-7.8-1.7-10.8-2.2c-3.4-0.6,0-3,0-7.5c0-1.8-1.6-4.3-0.9-5.4
		c0.6-1.1,3.8-0.5,4.9-0.8c1.1-0.3,2.8-1.3,3.4-2.6c0.3-0.7,0.4-3.9,0.6-5c0.2-1.1,1.7-1.6,4.9,0c3.2,1.6,6.3,8.4,9.3,13.2
		C90.8,176.6,91.8,178.5,91.5,181.3z M117.6,166.9c0.4,2.3,0.7,5.4,0.2,8c-0.6,2.6-1.5,3.4-2.4,5c-0.5-1.5,1.2-3,1-6.8
		c-0.1-2.1-0.2-1.7-2.5,0.4c-2.7,2.4-6.1,4.4-11.7,4.9c-4.6,0.4-7.1-1.8-7.1-1.8c1.1,3.5-0.9,5.4-0.9,5.4c0.1-0.8,0.2-3.2-0.6-4.8
		c-0.9-2-2.1-4.1-2.1-4.1s1.9-0.6,2.6-2.2c0.7-1.6,0.4-3.8-1.9-6.1c-2.4-2.3-11.6-8.3-12.3-9.3c-1.1-1.4-1.5-2.2-1.5-5.1
		c-0.1-2.9,1.2-5.4,0.9-4.5c-0.2,0.7,0,1.5,0,4.4s1.7,5.1,3.1,5.5c2.1,0.6,0.4-5.7,1.8-11.7c1.3-6,2.6-7.2,4.2-9.6
		c1.7-2.4,4.2-4.5,3.7-9.5s0-4.4,1.1-2.6c0.9,1.4,2.9,5.3,5.4,4.9c4.3-0.7,9.7-5.4,10.5-6.2s0.2-1.6-0.5-1.3
		c-3.4,1.5-9.7,4.7-11.3,4s-4-4.5-3.7-4.3c3.4,3,4.4,2.4,5.8,2c1.9-0.6,2.8-0.9,6.3-2.5c3.4-1.5,4.6-1.2,4.9-1.9
		c0.4-0.7-0.1-1.5-1-1.3c-1.4,0.3-0.7,1.1-5,2.7c-5.6,2.1-7.3,2.3-9.7,0.7c-1.9-1.3-3.3-2.8-3.3-3.7c0-0.9,1.8-1.8,2.7-2.5
		c0.9-0.7,2.7-2.4,2.7-2.4s0.2-1.6-0.1-2.8c-0.4-1.4-1.7-2.1-2.6-1.8c-0.9,0.2-1.8,1.2-1.5,3.3c0.2,1.8,1.5,2.4,1.5,2.4
		s-0.6,0.8-1.1,1c0,0-0.2-0.1-0.8-1.4s-1.5-4.3-0.1-6.8c1.4-2.6,4.3-1.1,5.2,0.8c0.9,1.8,0.5,5,0.5,5c1.3-0.5,2.9-0.4,4.6,0.8
		c-1.6-6.5,2.1-9,4.9-9s4.9,2.1,4.9,5.5c0,2.6-0.8,4-1.5,4.8c-0.9-0.1-1.8-0.3-1.4-0.7c0.3-0.3,1-1.3,1-2.9c0-1.7-1.3-3-3-3
		c-2,0-2.8,1.8-3,2.9s-0.1,1.9,0,2.3c0.1,1.1,2.4,2.1,5.2,2.8c2.9,0.7,2.5,2,1.8,5.6c-0.7,3.6,1.4,4,3.2,7.4
		c1.8,3.4,1.3,4.8,3.5,7.7c2.2,3,4.2,10.5,3.6,16.9c-0.2,2.3-0.9,2.2,1.6,1.5c1.2-0.4,2.6-0.6,2.6-0.6c0.7-1.4,0.7-3.6,0.8-4.9
		c0-3,0.2-9.1-5.9-15.7c0,0,6.5,4.8,7.5,13.6c0.6,4.9-0.4,7.1-0.4,7.1c1.2,0.3,2.2,1.6,2.8,2.6c0.8,1.3-0.9-1.3-4.4-1.3
		c-1.9,0-3.4,0.9-4.1,1.7s-0.7,1.7-0.7,2.6c-1.6-0.3-2.7,0-3.7,1.1C116.5,160.8,117.2,164.6,117.6,166.9z M137.4,177.2
		c-5.3,2.3-7.2,5.2-10.5,6.9c-3.3,1.8-6.1,0.5-7.4-1.8c-1.3-2.3,2.3-6.2,1-13.1c-1-5.3-1.4-6.8-1.1-8.1c0.3-1.2,2.1-1,2.5-0.9
		c0.3,1.2,1.5,4.3,5.9,4.3c0,0,5.1,0.6,7.2-4.7c0,0,1.3,0,1.6,0.8c0.5,1.3-0.6,3.6-0.6,4.7c0.1,3.5,2.6,4.7,6.2,7
		C144.2,173.7,142.8,174.9,137.4,177.2z"/>
</g>
</svg>
