<?xml version="1.0" encoding="utf-8"?>
<!-- Generator: Adobe Illustrator 21.1.0, SVG Export Plug-In . SVG Version: 6.00 Build 0)  -->
<svg version="1.1" id="Слой_1" xmlns="http://www.w3.org/2000/svg" xmlns:xlink="http://www.w3.org/1999/xlink" x="0px" y="0px"
	 viewBox="0 0 907.1 907.1" style="enable-background:new 0 0 907.1 907.1;" xml:space="preserve">
<style type="text/css">
	.st0{fill:#5A6AAE;}
	.st1{fill:#37489E;}
	.st2{fill:#FFFFFF;}
</style>
<g>
	<path class="st0" d="M703.9,418.5c9.1,0,95.6,0,175.4,0c3.5-103.5-36.3-208-119.7-287C681.7,57.7,580.2,20,478.2,18v166.3
		c0,0.6,0.1,0.9,0.1,0.9c0.6,0.7,5.9,3.7,19.1,3.7c11.7,0,25.3-2.6,35.6-6.7c8.4-3.4,15.8-7.7,23.7-12.4
		c17.4-10.2,37.1-21.7,67.1-21.7c49.4,0,89.6,38.1,89.6,84.9c0,46.8-40.2,84.9-89.6,84.9c-30.1,0-49.8-11.5-67.1-21.7
		c-7.9-4.6-15.4-9-23.7-12.4c-10.3-4.1-23.9-6.7-35.6-6.7c-13,0-18.3,3-19.1,3.9c0,0,0,0.3,0,0.7v84.5c0,28.8,24.7,52.2,55.1,52.2
		c26,0,54.3,0,67.8,0c32.1,0,30.7,50.7,17.5,80.1c-12.5,27.9-34.3,43.9-34.3,78.1c0,35.7,30.5,64.6,68.2,64.6
		c37.7,0,68.2-28.9,68.2-64.6c0-34.2-21.8-50.2-34.3-78.1C673.2,469.1,671.7,418.5,703.9,418.5z"/>
	<path class="st1" d="M623.8,168.4c-36.1,0-53,20.6-82.5,32.5c-31.1,12.5-84.6,13.9-84.6-16.6c0-10.1,0-98.7,0-166.2
		c-100.5,3-200,40.7-276.7,113.4c-83.4,79-123.2,183.5-119.7,287h149.3c0.6,0,0.9-0.1,0.9-0.1c5-3.7,6.8-29.6-3.1-51.8
		c-3.6-7.9-8.2-15-13.1-22.5c-10.7-16.5-22.9-35.1-22.9-63.6c0-46.8,40.2-84.9,89.6-84.9c49.4,0,89.6,38.1,89.6,84.9
		c0,28.5-12.2,47.1-22.9,63.6c-4.9,7.5-9.5,14.5-13.1,22.5c-9.9,22.1-8.1,47.9-3,51.8l0,0c0.1,0,0.4,0,0.8,0h89.2
		c30.4,0,55.1-23.4,55.1-52.2c0-28.4,0-62.1,0-84.5c0-30.4,53.5-29.1,84.6-16.6c29.4,11.9,46.4,32.5,82.5,32.5
		c37.7,0,68.2-28.9,68.2-64.6C692,197.4,661.4,168.4,623.8,168.4z"/>
	<path class="st1" d="M401.6,438.7h-89.2c-32.1,0-30.7-50.7-17.5-80.1c12.5-27.9,34.3-43.9,34.3-78.1c0-35.7-30.5-64.6-68.2-64.6
		c-37.7,0-68.2,28.9-68.2,64.6c0,34.2,21.8,50.2,34.3,78.1c13.2,29.4,14.6,80.1-17.5,80.1h-148C69.4,526.9,108.8,613,180,680.5
		c60.9,58.1,97.9,79.6,128.9,157.1c0.2,0.6,0.5,1.3,0.8,1.9c7.7,17,24.6,29.4,44.8,31.4h47.1c30.4,0,55.1-23.4,55.1-52.2V652.6
		c0-0.6-0.1-0.9-0.1-0.9c-0.6-0.7-5.9-3.7-19.1-3.7c-11.7,0-25.3,2.6-35.6,6.7c-8.4,3.4-15.8,7.7-23.7,12.4
		c-17.4,10.2-37.1,21.7-67.1,21.7c-49.4,0-89.6-38.1-89.6-84.9s40.2-84.9,89.6-84.9c30,0,49.7,11.5,67.1,21.7
		c7.9,4.6,15.3,9,23.7,12.4c10.3,4.2,23.9,6.7,35.6,6.7c13,0,18.3-3,19.1-3.9c0,0,0-0.3,0-0.7V491
		C456.7,462.1,432.1,438.7,401.6,438.7z"/>
	<path class="st0" d="M703.9,438.7c-0.7,0-0.9,0.1-0.9,0.1c-5,3.8-6.8,29.6,3.1,51.8c3.6,7.9,8.2,15,13.1,22.5
		c10.7,16.5,22.9,35.1,22.9,63.6c0,46.8-40.2,84.9-89.6,84.9c-49.4,0-89.6-38.1-89.6-84.9c0-28.5,12.2-47.1,22.9-63.6
		c4.9-7.5,9.5-14.5,13-22.5c9.9-22.1,8.1-47.9,3-51.8l0,0c-0.1,0-0.4,0-0.8,0h-67.8c-30.4,0-55.1,23.4-55.1,52.2v64.2
		c0,30.4-53.5,29.1-84.6,16.6c-29.4-11.8-46.4-32.5-82.5-32.5c-37.7,0-68.2,28.9-68.2,64.6c0,35.7,30.5,64.6,68.2,64.6
		c36.1,0,53-20.6,82.5-32.5c31.1-12.5,84.6-13.9,84.6,16.6v166.1c0,28.8,24.7,52.2,55.1,52.2h46.2c22.5,0,41.8-12.8,50.3-31
		c0.8-2,1.6-4,2.3-5.9c30.7-74.6,67.5-96.3,127.5-153.5c71.2-67.5,110.6-153.6,118.5-241.7H703.9z"/>
	<circle class="st2" cx="466.2" cy="627.4" r="279.7"/>
	<path class="st1" d="M641.1,767.1c-6.7-4-13.2-11-12-18.8c2.3-15.3,2.5-21.5-0.2-25.7c-1.9-3.2-5.5-5-8.6-5.8
		c2-2.5,3.1-5.4,3.8-10.9c1.3-10-4.7-40.9-12.7-65.6c-8-24.6-29.8-49.9-44.6-67.8c-25.9-31.7-22.7-39.1-26.2-99.5
		c-2.2-38.4-19.3-69.1-69.4-69.1s-66.8,31.9-66.8,58.9c0,28.6,2,50.9,2,50.9c1.3,33.3,1,39.3-8,55.2c-4.9,8.7-26.9,29.9-35.6,44.6
		c-8.7,14.7-7.6,29.4-24.5,52.7c-12.4,17-13.8,28.3-9.7,43.9c-7,8.2-3.6,19.9-5,24.8c-2.6,8.7-13.7,10.3-22.2,11
		c-8.6,0.7-15.3,0-18.7,5.3c-3.4,5.3,0.7,16,4.3,29.9c3.6,14-7.3,15-7.3,30.9c0,16,29.9,16,59.6,22.6s40.6,16.3,55.9,16.3
		s26.7-10.2,37.9-19.3c7.2-5.9,28.9-3.7,42.2-3.7s34.2-0.6,45.6,2.4s11.3,20.6,39.2,20.6c27.9,0,34.6-20.7,60.9-34.2
		s41.9-20,41.9-29.6C662.8,777.4,647.8,771.1,641.1,767.1z M415.1,822.5c-1.3,13-12.6,17.1-24,16.1c-13-1.1-28.9-7.6-44-12.1
		c-15.1-4.5-35.4-7.5-48.9-9.9c-15.3-2.7,0-13.6-0.2-34.1c-0.1-8-7.1-19.4-4.2-24.6s17.3-2.4,22.2-3.8c5-1.4,12.7-5.7,15.3-11.9
		c1.4-3.4,1.8-17.7,2.9-22.7c1.1-4.9,7.9-7.2,22.1,0.1c14.3,7.3,28.8,38,42.2,59.7C411.9,800.8,416.4,809.5,415.1,822.5z
		 M533.4,756.8c2,10.3,3.2,24.4,0.7,36.2c-2.5,11.8-7,15.5-10.7,22.9c-2.2-6.8,5.3-13.8,4.4-30.7c-0.5-9.5-0.8-7.8-11.5,1.8
		c-12.2,10.8-27.5,20.1-52.9,22.4c-21,2-32.4-8.3-32.4-8.3c5,16-4.3,24.6-4.3,24.6c0.3-3.7,0.8-14.3-2.5-21.6
		c-4-9-9.3-18.7-9.3-18.7s8.6-2.7,11.6-10c3-7.3,2-17.3-8.7-27.6c-10.7-10.4-52.4-37.5-55.8-42c-4.9-6.5-6.7-10.2-7-23.1
		c-0.3-13,5.4-24.7,4.3-20.3c-0.8,3.2,0.1,6.8,0.1,19.8c0,13,7.6,23.2,13.9,24.9c9.5,2.6,2-26,8-53s11.7-32.7,19.2-43.7
		c7.5-11,19.2-20.5,17-43c-2.2-22.5-0.1-20.1,5.1-11.8c4,6.5,13.3,23.9,24.6,22c19.4-3.3,43.8-24.5,47.5-28.1s0.7-7.1-2.3-5.8
		c-15.5,6.7-44.2,21.5-51.4,18.2c-7.2-3.3-18.1-20.6-16.8-19.5c15.4,13.6,19.9,11.1,26.3,9c8.4-2.8,12.8-4.3,28.4-11.3
		s20.7-5.3,22.2-8.7c1.6-3.4-0.4-6.7-4.7-5.7c-6.4,1.5-3.4,5.1-22.6,12.3c-25.2,9.5-33.2,10.3-43.9,3c-8.6-5.9-15-12.7-15-16.7
		c0-4,8.3-8.3,12.3-11.3c4-3,12.3-10.9,12.3-10.9s1-7.2-0.6-12.7c-1.9-6.5-7.8-9.3-11.9-8.1c-4.1,1.1-8,5.5-6.8,14.8
		c1,8.3,7,11,7,11s-2.7,3.5-5.2,4.7c0,0-0.8-0.3-3.5-6.3s-6.6-19.5-0.3-31c6.3-11.6,19.6-5.2,23.7,3.8c3.9,8.3,2.4,22.6,2.4,22.6
		c6-2.2,13-2,21,3.5c-7.1-29.7,9.5-41,22-41s22.2,9.6,22.2,24.9c0,12-3.5,18.2-6.9,21.9c-4.1-0.5-8.2-1.5-6.3-3.4
		c1.3-1.4,4.4-5.7,4.4-13.2c0-7.5-5.9-13.7-13.7-13.7c-9.2,0-12.6,8.3-13.7,13c-1.1,4.7-0.4,8.6-0.2,10.4c0.6,5,10.9,9.6,23.8,12.9
		c13,3.3,11.3,9,8.3,25.2c-3,16.3,6.3,18.3,14.3,33.7s5.7,21.8,15.9,35.1c10.2,13.4,19,47.7,16.4,76.6c-0.9,10.5-3.9,10.2,7.3,6.7
		c5.6-1.7,12-2.7,12-2.7c3.1-6.3,3.4-16.3,3.5-22.2c0.2-13.5,0.7-41.4-26.6-71.3c0,0,29.4,21.7,33.9,61.9c2.5,22.3-2,32.3-2,32.3
		c5.3,1.3,9.8,7.3,12.6,11.8c3.7,6.1-3.9-5.8-20-5.8c-8.5,0-15.3,3.9-18.5,7.9c-3.2,4-3.1,7.6-3.2,11.7c-7.1-1.2-12.4,0-16.8,4.9
		C528.6,729.3,531.4,746.4,533.4,756.8z M623.3,803.9c-24,10.4-32.6,23.4-47.6,31.4c-15,8-27.6,2.3-33.6-8s10.4-28.1,4.7-59.5
		c-4.4-24.1-6.3-30.9-4.9-36.7c1.4-5.5,9.4-4.4,11.5-3.9c1.3,5.4,6.7,19.5,26.9,19.5c0,0,23.1,2.6,32.6-21.2c0,0,5.7-0.2,7.2,3.5
		c2.3,5.8-2.9,16.5-2.8,21.3c0.3,15.7,11.7,21.1,28.3,31.9C653.8,787.8,647.7,793.3,623.3,803.9z"/>
</g>
</svg>
